<mxfile host="app.diagrams.net" modified="2024-04-21T14:36:12.362Z" agent="Mozilla/5.0 (Macintosh; Intel Mac OS X 10_15_7) AppleWebKit/537.36 (KHTML, like Gecko) Chrome/124.0.0.0 Safari/537.36" etag="v_4RLID4CMeLTVuPcEDm" version="24.2.5" type="device">
  <diagram id="9QaqoEUcsIEGfBQhGI3q" name="Page-1">
    <mxGraphModel dx="1719" dy="553" grid="1" gridSize="10" guides="1" tooltips="1" connect="1" arrows="1" fold="1" page="1" pageScale="1" pageWidth="827" pageHeight="1169" math="0" shadow="0">
      <root>
        <mxCell id="0" />
        <mxCell id="1" parent="0" />
        <mxCell id="NIXMcVI8Ff-R636Ted0A-59" value="" style="rounded=0;whiteSpace=wrap;html=1;dashed=1;" vertex="1" parent="1">
          <mxGeometry x="-510" y="370" width="290" height="240" as="geometry" />
        </mxCell>
        <mxCell id="NIXMcVI8Ff-R636Ted0A-58" value="" style="rounded=0;whiteSpace=wrap;html=1;" vertex="1" parent="1">
          <mxGeometry x="-500" y="480" width="60" height="120" as="geometry" />
        </mxCell>
        <mxCell id="UWeIgNCarTInUxtCSZPL-55" value="" style="rounded=0;whiteSpace=wrap;html=1;dashed=1;" parent="1" vertex="1">
          <mxGeometry x="-70" y="660" width="480" height="580" as="geometry" />
        </mxCell>
        <mxCell id="UWeIgNCarTInUxtCSZPL-30" value="" style="rounded=0;whiteSpace=wrap;dashed=1;" parent="1" vertex="1">
          <mxGeometry x="70" y="410" width="440" height="230" as="geometry" />
        </mxCell>
        <mxCell id="UWeIgNCarTInUxtCSZPL-1" value="客户端" style="rounded=0;whiteSpace=wrap;html=1;" parent="1" vertex="1">
          <mxGeometry x="120" y="60" width="120" height="30" as="geometry" />
        </mxCell>
        <mxCell id="UWeIgNCarTInUxtCSZPL-2" value="服务端" style="rounded=0;whiteSpace=wrap;html=1;" parent="1" vertex="1">
          <mxGeometry x="430" y="60" width="120" height="30" as="geometry" />
        </mxCell>
        <mxCell id="UWeIgNCarTInUxtCSZPL-4" value="" style="endArrow=none;dashed=1;html=1;rounded=0;" parent="1" edge="1">
          <mxGeometry width="50" height="50" relative="1" as="geometry">
            <mxPoint x="179" y="360" as="sourcePoint" />
            <mxPoint x="179.41" y="100" as="targetPoint" />
          </mxGeometry>
        </mxCell>
        <mxCell id="UWeIgNCarTInUxtCSZPL-5" value="" style="endArrow=none;dashed=1;html=1;rounded=0;" parent="1" edge="1">
          <mxGeometry width="50" height="50" relative="1" as="geometry">
            <mxPoint x="489" y="360" as="sourcePoint" />
            <mxPoint x="489.4100000000001" y="100" as="targetPoint" />
          </mxGeometry>
        </mxCell>
        <mxCell id="UWeIgNCarTInUxtCSZPL-6" value="" style="endArrow=classic;html=1;rounded=0;" parent="1" edge="1">
          <mxGeometry width="50" height="50" relative="1" as="geometry">
            <mxPoint x="190" y="110" as="sourcePoint" />
            <mxPoint x="490" y="110" as="targetPoint" />
          </mxGeometry>
        </mxCell>
        <mxCell id="UWeIgNCarTInUxtCSZPL-7" value="请求https连接" style="text;html=1;align=center;verticalAlign=middle;resizable=0;points=[];autosize=1;strokeColor=none;fillColor=none;" parent="1" vertex="1">
          <mxGeometry x="280" y="80" width="100" height="30" as="geometry" />
        </mxCell>
        <mxCell id="UWeIgNCarTInUxtCSZPL-8" value="" style="endArrow=classic;html=1;rounded=0;" parent="1" edge="1">
          <mxGeometry width="50" height="50" relative="1" as="geometry">
            <mxPoint x="480" y="140" as="sourcePoint" />
            <mxPoint x="190" y="140" as="targetPoint" />
          </mxGeometry>
        </mxCell>
        <mxCell id="UWeIgNCarTInUxtCSZPL-9" value="返回证书（公钥）" style="text;html=1;align=center;verticalAlign=middle;resizable=0;points=[];autosize=1;strokeColor=none;fillColor=none;" parent="1" vertex="1">
          <mxGeometry x="270" y="140" width="120" height="30" as="geometry" />
        </mxCell>
        <mxCell id="UWeIgNCarTInUxtCSZPL-10" value="" style="endArrow=classic;html=1;rounded=0;" parent="1" edge="1">
          <mxGeometry width="50" height="50" relative="1" as="geometry">
            <mxPoint x="192" y="173" as="sourcePoint" />
            <mxPoint x="192" y="203" as="targetPoint" />
            <Array as="points">
              <mxPoint x="222" y="173" />
              <mxPoint x="222" y="203" />
            </Array>
          </mxGeometry>
        </mxCell>
        <mxCell id="UWeIgNCarTInUxtCSZPL-11" value="产生随机（对称）密钥" style="text;html=1;align=center;verticalAlign=middle;resizable=0;points=[];autosize=1;strokeColor=none;fillColor=none;" parent="1" vertex="1">
          <mxGeometry x="180" y="170" width="140" height="30" as="geometry" />
        </mxCell>
        <mxCell id="UWeIgNCarTInUxtCSZPL-12" value="" style="endArrow=classic;html=1;rounded=0;" parent="1" edge="1">
          <mxGeometry width="50" height="50" relative="1" as="geometry">
            <mxPoint x="190" y="230" as="sourcePoint" />
            <mxPoint x="190" y="260" as="targetPoint" />
            <Array as="points">
              <mxPoint x="220" y="230" />
              <mxPoint x="220" y="260" />
            </Array>
          </mxGeometry>
        </mxCell>
        <mxCell id="UWeIgNCarTInUxtCSZPL-13" value="使用公钥对对称密钥进行加密" style="text;html=1;align=center;verticalAlign=middle;resizable=0;points=[];autosize=1;strokeColor=none;fillColor=none;" parent="1" vertex="1">
          <mxGeometry x="160" y="230" width="180" height="30" as="geometry" />
        </mxCell>
        <mxCell id="UWeIgNCarTInUxtCSZPL-14" value="" style="endArrow=classic;html=1;rounded=0;" parent="1" edge="1">
          <mxGeometry width="50" height="50" relative="1" as="geometry">
            <mxPoint x="180" y="280" as="sourcePoint" />
            <mxPoint x="480" y="280" as="targetPoint" />
          </mxGeometry>
        </mxCell>
        <mxCell id="UWeIgNCarTInUxtCSZPL-16" value="发送加密后的对称密钥" style="text;html=1;align=center;verticalAlign=middle;resizable=0;points=[];autosize=1;strokeColor=none;fillColor=none;" parent="1" vertex="1">
          <mxGeometry x="260" y="280" width="140" height="30" as="geometry" />
        </mxCell>
        <mxCell id="UWeIgNCarTInUxtCSZPL-18" value="" style="endArrow=classic;html=1;rounded=0;" parent="1" edge="1">
          <mxGeometry width="50" height="50" relative="1" as="geometry">
            <mxPoint x="475" y="308.82" as="sourcePoint" />
            <mxPoint x="185" y="308.82" as="targetPoint" />
          </mxGeometry>
        </mxCell>
        <mxCell id="UWeIgNCarTInUxtCSZPL-19" value="收到！" style="text;html=1;align=center;verticalAlign=middle;resizable=0;points=[];autosize=1;strokeColor=none;fillColor=none;" parent="1" vertex="1">
          <mxGeometry x="280" y="305" width="60" height="30" as="geometry" />
        </mxCell>
        <mxCell id="UWeIgNCarTInUxtCSZPL-20" value="" style="endArrow=classic;html=1;rounded=0;" parent="1" edge="1">
          <mxGeometry width="50" height="50" relative="1" as="geometry">
            <mxPoint x="180" y="340" as="sourcePoint" />
            <mxPoint x="480" y="340" as="targetPoint" />
          </mxGeometry>
        </mxCell>
        <mxCell id="UWeIgNCarTInUxtCSZPL-21" value="通过对称加密的密钥进行密文通信" style="text;html=1;align=center;verticalAlign=middle;resizable=0;points=[];autosize=1;strokeColor=none;fillColor=none;" parent="1" vertex="1">
          <mxGeometry x="220" y="345" width="200" height="30" as="geometry" />
        </mxCell>
        <mxCell id="UWeIgNCarTInUxtCSZPL-24" value="" style="edgeStyle=orthogonalEdgeStyle;rounded=0;orthogonalLoop=1;jettySize=auto;html=1;" parent="1" source="UWeIgNCarTInUxtCSZPL-22" target="UWeIgNCarTInUxtCSZPL-23" edge="1">
          <mxGeometry relative="1" as="geometry" />
        </mxCell>
        <mxCell id="UWeIgNCarTInUxtCSZPL-22" value="URL" style="rounded=0;whiteSpace=wrap;html=1;" parent="1" vertex="1">
          <mxGeometry x="110" y="430" width="120" height="50" as="geometry" />
        </mxCell>
        <mxCell id="UWeIgNCarTInUxtCSZPL-33" value="" style="edgeStyle=orthogonalEdgeStyle;rounded=0;orthogonalLoop=1;jettySize=auto;html=1;" parent="1" source="UWeIgNCarTInUxtCSZPL-23" target="UWeIgNCarTInUxtCSZPL-32" edge="1">
          <mxGeometry relative="1" as="geometry" />
        </mxCell>
        <mxCell id="UWeIgNCarTInUxtCSZPL-23" value="浏览器" style="rounded=0;whiteSpace=wrap;html=1;" parent="1" vertex="1">
          <mxGeometry x="110" y="560" width="120" height="50" as="geometry" />
        </mxCell>
        <mxCell id="UWeIgNCarTInUxtCSZPL-25" value="ARP" style="text;html=1;align=center;verticalAlign=middle;resizable=0;points=[];autosize=1;strokeColor=none;fillColor=none;" parent="1" vertex="1">
          <mxGeometry x="175" y="515" width="50" height="30" as="geometry" />
        </mxCell>
        <mxCell id="UWeIgNCarTInUxtCSZPL-28" value="" style="endArrow=classic;startArrow=classic;html=1;rounded=0;exitX=1;exitY=0.5;exitDx=0;exitDy=0;" parent="1" source="UWeIgNCarTInUxtCSZPL-23" edge="1">
          <mxGeometry width="50" height="50" relative="1" as="geometry">
            <mxPoint x="330" y="540" as="sourcePoint" />
            <mxPoint x="370" y="585" as="targetPoint" />
          </mxGeometry>
        </mxCell>
        <mxCell id="UWeIgNCarTInUxtCSZPL-29" value="资源" style="rounded=0;whiteSpace=wrap;html=1;" parent="1" vertex="1">
          <mxGeometry x="370" y="560" width="120" height="50" as="geometry" />
        </mxCell>
        <mxCell id="UWeIgNCarTInUxtCSZPL-31" value="服务" style="text;html=1;align=center;verticalAlign=middle;resizable=0;points=[];autosize=1;strokeColor=none;fillColor=none;" parent="1" vertex="1">
          <mxGeometry x="364" y="450" width="50" height="30" as="geometry" />
        </mxCell>
        <mxCell id="UWeIgNCarTInUxtCSZPL-42" value="" style="edgeStyle=orthogonalEdgeStyle;rounded=0;orthogonalLoop=1;jettySize=auto;html=1;" parent="1" source="UWeIgNCarTInUxtCSZPL-32" target="UWeIgNCarTInUxtCSZPL-34" edge="1">
          <mxGeometry relative="1" as="geometry" />
        </mxCell>
        <mxCell id="UWeIgNCarTInUxtCSZPL-32" value="HTML parser" style="rounded=0;whiteSpace=wrap;html=1;" parent="1" vertex="1">
          <mxGeometry x="110" y="690" width="120" height="50" as="geometry" />
        </mxCell>
        <mxCell id="UWeIgNCarTInUxtCSZPL-34" value="DOM" style="rounded=0;whiteSpace=wrap;html=1;" parent="1" vertex="1">
          <mxGeometry x="110" y="800" width="120" height="50" as="geometry" />
        </mxCell>
        <mxCell id="UWeIgNCarTInUxtCSZPL-46" value="" style="edgeStyle=orthogonalEdgeStyle;rounded=0;orthogonalLoop=1;jettySize=auto;html=1;" parent="1" source="UWeIgNCarTInUxtCSZPL-35" target="UWeIgNCarTInUxtCSZPL-45" edge="1">
          <mxGeometry relative="1" as="geometry" />
        </mxCell>
        <mxCell id="UWeIgNCarTInUxtCSZPL-35" value="JS parser" style="rounded=0;whiteSpace=wrap;html=1;" parent="1" vertex="1">
          <mxGeometry x="-30" y="800" width="120" height="50" as="geometry" />
        </mxCell>
        <mxCell id="UWeIgNCarTInUxtCSZPL-38" value="" style="edgeStyle=orthogonalEdgeStyle;rounded=0;orthogonalLoop=1;jettySize=auto;html=1;" parent="1" source="UWeIgNCarTInUxtCSZPL-36" target="UWeIgNCarTInUxtCSZPL-37" edge="1">
          <mxGeometry relative="1" as="geometry" />
        </mxCell>
        <mxCell id="UWeIgNCarTInUxtCSZPL-36" value="CSS parser" style="rounded=0;whiteSpace=wrap;html=1;" parent="1" vertex="1">
          <mxGeometry x="250" y="800" width="120" height="50" as="geometry" />
        </mxCell>
        <mxCell id="UWeIgNCarTInUxtCSZPL-40" value="" style="edgeStyle=orthogonalEdgeStyle;rounded=0;orthogonalLoop=1;jettySize=auto;html=1;" parent="1" source="UWeIgNCarTInUxtCSZPL-37" target="UWeIgNCarTInUxtCSZPL-39" edge="1">
          <mxGeometry relative="1" as="geometry" />
        </mxCell>
        <mxCell id="UWeIgNCarTInUxtCSZPL-37" value="CSSOM" style="rounded=0;whiteSpace=wrap;html=1;" parent="1" vertex="1">
          <mxGeometry x="250" y="890" width="120" height="50" as="geometry" />
        </mxCell>
        <mxCell id="UWeIgNCarTInUxtCSZPL-51" value="" style="edgeStyle=orthogonalEdgeStyle;rounded=0;orthogonalLoop=1;jettySize=auto;html=1;" parent="1" source="UWeIgNCarTInUxtCSZPL-39" target="UWeIgNCarTInUxtCSZPL-50" edge="1">
          <mxGeometry relative="1" as="geometry" />
        </mxCell>
        <mxCell id="UWeIgNCarTInUxtCSZPL-39" value="render tree" style="rounded=0;whiteSpace=wrap;html=1;" parent="1" vertex="1">
          <mxGeometry x="105" y="990" width="265" height="50" as="geometry" />
        </mxCell>
        <mxCell id="UWeIgNCarTInUxtCSZPL-41" value="" style="endArrow=classic;html=1;rounded=0;exitX=0.5;exitY=1;exitDx=0;exitDy=0;entryX=0.25;entryY=0;entryDx=0;entryDy=0;" parent="1" source="UWeIgNCarTInUxtCSZPL-34" target="UWeIgNCarTInUxtCSZPL-39" edge="1">
          <mxGeometry width="50" height="50" relative="1" as="geometry">
            <mxPoint x="220" y="890" as="sourcePoint" />
            <mxPoint x="270" y="840" as="targetPoint" />
          </mxGeometry>
        </mxCell>
        <mxCell id="UWeIgNCarTInUxtCSZPL-43" value="" style="endArrow=classic;html=1;rounded=0;exitX=1;exitY=0.5;exitDx=0;exitDy=0;entryX=0.5;entryY=0;entryDx=0;entryDy=0;" parent="1" source="UWeIgNCarTInUxtCSZPL-32" target="UWeIgNCarTInUxtCSZPL-36" edge="1">
          <mxGeometry width="50" height="50" relative="1" as="geometry">
            <mxPoint x="220" y="890" as="sourcePoint" />
            <mxPoint x="270" y="840" as="targetPoint" />
            <Array as="points">
              <mxPoint x="310" y="715" />
            </Array>
          </mxGeometry>
        </mxCell>
        <mxCell id="UWeIgNCarTInUxtCSZPL-44" value="" style="endArrow=classic;html=1;rounded=0;exitX=0;exitY=0.5;exitDx=0;exitDy=0;entryX=0.5;entryY=0;entryDx=0;entryDy=0;" parent="1" source="UWeIgNCarTInUxtCSZPL-32" target="UWeIgNCarTInUxtCSZPL-35" edge="1">
          <mxGeometry width="50" height="50" relative="1" as="geometry">
            <mxPoint x="240.00000000000023" y="725" as="sourcePoint" />
            <mxPoint x="320.0000000000002" y="810" as="targetPoint" />
            <Array as="points">
              <mxPoint x="30" y="715" />
            </Array>
          </mxGeometry>
        </mxCell>
        <mxCell id="UWeIgNCarTInUxtCSZPL-45" value="JS 请求" style="rounded=0;whiteSpace=wrap;html=1;" parent="1" vertex="1">
          <mxGeometry x="-30" y="930" width="120" height="50" as="geometry" />
        </mxCell>
        <mxCell id="UWeIgNCarTInUxtCSZPL-49" value="" style="endArrow=classic;html=1;rounded=0;exitX=0.5;exitY=1;exitDx=0;exitDy=0;entryX=0;entryY=0.5;entryDx=0;entryDy=0;" parent="1" source="UWeIgNCarTInUxtCSZPL-45" target="UWeIgNCarTInUxtCSZPL-39" edge="1">
          <mxGeometry width="50" height="50" relative="1" as="geometry">
            <mxPoint x="120" y="930" as="sourcePoint" />
            <mxPoint x="170" y="880" as="targetPoint" />
            <Array as="points">
              <mxPoint x="30" y="1015" />
            </Array>
          </mxGeometry>
        </mxCell>
        <mxCell id="UWeIgNCarTInUxtCSZPL-54" value="" style="edgeStyle=orthogonalEdgeStyle;rounded=0;orthogonalLoop=1;jettySize=auto;html=1;" parent="1" source="UWeIgNCarTInUxtCSZPL-50" target="UWeIgNCarTInUxtCSZPL-53" edge="1">
          <mxGeometry relative="1" as="geometry" />
        </mxCell>
        <mxCell id="UWeIgNCarTInUxtCSZPL-50" value="layout" style="rounded=0;whiteSpace=wrap;html=1;" parent="1" vertex="1">
          <mxGeometry x="105" y="1080" width="265" height="50" as="geometry" />
        </mxCell>
        <mxCell id="UWeIgNCarTInUxtCSZPL-53" value="paint" style="rounded=0;whiteSpace=wrap;html=1;" parent="1" vertex="1">
          <mxGeometry x="-30" y="1169" width="400" height="50" as="geometry" />
        </mxCell>
        <mxCell id="NIXMcVI8Ff-R636Ted0A-1" value="" style="endArrow=none;html=1;rounded=0;" edge="1" parent="1">
          <mxGeometry width="50" height="50" relative="1" as="geometry">
            <mxPoint x="-720" y="330" as="sourcePoint" />
            <mxPoint x="-720" y="100" as="targetPoint" />
          </mxGeometry>
        </mxCell>
        <mxCell id="NIXMcVI8Ff-R636Ted0A-2" value="发起方" style="text;html=1;align=center;verticalAlign=middle;resizable=0;points=[];autosize=1;strokeColor=none;fillColor=none;" vertex="1" parent="1">
          <mxGeometry x="-750" y="58" width="60" height="30" as="geometry" />
        </mxCell>
        <mxCell id="NIXMcVI8Ff-R636Ted0A-3" value="" style="endArrow=none;html=1;rounded=0;" edge="1" parent="1">
          <mxGeometry width="50" height="50" relative="1" as="geometry">
            <mxPoint x="-520" y="330" as="sourcePoint" />
            <mxPoint x="-520" y="100" as="targetPoint" />
          </mxGeometry>
        </mxCell>
        <mxCell id="NIXMcVI8Ff-R636Ted0A-4" value="接收方" style="text;html=1;align=center;verticalAlign=middle;resizable=0;points=[];autosize=1;strokeColor=none;fillColor=none;" vertex="1" parent="1">
          <mxGeometry x="-550" y="58" width="60" height="30" as="geometry" />
        </mxCell>
        <mxCell id="NIXMcVI8Ff-R636Ted0A-5" value="" style="endArrow=classic;html=1;rounded=0;" edge="1" parent="1">
          <mxGeometry width="50" height="50" relative="1" as="geometry">
            <mxPoint x="-720" y="120" as="sourcePoint" />
            <mxPoint x="-520" y="120" as="targetPoint" />
          </mxGeometry>
        </mxCell>
        <mxCell id="NIXMcVI8Ff-R636Ted0A-6" value="SYNC=1 ACK=0" style="edgeLabel;html=1;align=center;verticalAlign=middle;resizable=0;points=[];" vertex="1" connectable="0" parent="NIXMcVI8Ff-R636Ted0A-5">
          <mxGeometry x="-0.074" y="-1" relative="1" as="geometry">
            <mxPoint as="offset" />
          </mxGeometry>
        </mxCell>
        <mxCell id="NIXMcVI8Ff-R636Ted0A-7" value="SYNC=1 ACK=1" style="endArrow=classic;html=1;rounded=0;" edge="1" parent="1">
          <mxGeometry x="-0.0039" width="50" height="50" relative="1" as="geometry">
            <mxPoint x="-520" y="120" as="sourcePoint" />
            <mxPoint x="-720" y="180" as="targetPoint" />
            <mxPoint as="offset" />
          </mxGeometry>
        </mxCell>
        <mxCell id="NIXMcVI8Ff-R636Ted0A-8" value="" style="endArrow=classic;html=1;rounded=0;" edge="1" parent="1">
          <mxGeometry width="50" height="50" relative="1" as="geometry">
            <mxPoint x="-720" y="180" as="sourcePoint" />
            <mxPoint x="-520" y="180" as="targetPoint" />
          </mxGeometry>
        </mxCell>
        <mxCell id="NIXMcVI8Ff-R636Ted0A-9" value="SYNC=0 ACK=1" style="edgeLabel;html=1;align=center;verticalAlign=middle;resizable=0;points=[];" vertex="1" connectable="0" parent="NIXMcVI8Ff-R636Ted0A-8">
          <mxGeometry x="-0.074" y="-1" relative="1" as="geometry">
            <mxPoint as="offset" />
          </mxGeometry>
        </mxCell>
        <mxCell id="NIXMcVI8Ff-R636Ted0A-10" value="三次握手" style="text;html=1;align=center;verticalAlign=middle;resizable=0;points=[];autosize=1;strokeColor=none;fillColor=none;" vertex="1" parent="1">
          <mxGeometry x="-465" y="138" width="70" height="30" as="geometry" />
        </mxCell>
        <mxCell id="NIXMcVI8Ff-R636Ted0A-12" value="..." style="text;html=1;align=center;verticalAlign=middle;resizable=0;points=[];autosize=1;strokeColor=none;fillColor=none;" vertex="1" parent="1">
          <mxGeometry x="-645" y="190" width="30" height="30" as="geometry" />
        </mxCell>
        <mxCell id="NIXMcVI8Ff-R636Ted0A-13" value="" style="endArrow=classic;html=1;rounded=0;" edge="1" parent="1">
          <mxGeometry width="50" height="50" relative="1" as="geometry">
            <mxPoint x="-720" y="230" as="sourcePoint" />
            <mxPoint x="-520" y="230" as="targetPoint" />
          </mxGeometry>
        </mxCell>
        <mxCell id="NIXMcVI8Ff-R636Ted0A-14" value="FIN = 1" style="edgeLabel;html=1;align=center;verticalAlign=middle;resizable=0;points=[];" vertex="1" connectable="0" parent="NIXMcVI8Ff-R636Ted0A-13">
          <mxGeometry x="-0.074" y="-1" relative="1" as="geometry">
            <mxPoint as="offset" />
          </mxGeometry>
        </mxCell>
        <mxCell id="NIXMcVI8Ff-R636Ted0A-15" value="FIN=1 ACK=1" style="endArrow=classic;html=1;rounded=0;" edge="1" parent="1">
          <mxGeometry x="-0.0039" width="50" height="50" relative="1" as="geometry">
            <mxPoint x="-520" y="232" as="sourcePoint" />
            <mxPoint x="-720" y="292" as="targetPoint" />
            <mxPoint as="offset" />
          </mxGeometry>
        </mxCell>
        <mxCell id="NIXMcVI8Ff-R636Ted0A-16" value="FIN = 1 ACK = 0" style="endArrow=classic;html=1;rounded=0;" edge="1" parent="1">
          <mxGeometry x="-0.0039" width="50" height="50" relative="1" as="geometry">
            <mxPoint x="-520" y="265" as="sourcePoint" />
            <mxPoint x="-720" y="325" as="targetPoint" />
            <mxPoint as="offset" />
          </mxGeometry>
        </mxCell>
        <mxCell id="NIXMcVI8Ff-R636Ted0A-17" value="" style="endArrow=classic;html=1;rounded=0;" edge="1" parent="1">
          <mxGeometry width="50" height="50" relative="1" as="geometry">
            <mxPoint x="-720" y="330" as="sourcePoint" />
            <mxPoint x="-520" y="330" as="targetPoint" />
          </mxGeometry>
        </mxCell>
        <mxCell id="NIXMcVI8Ff-R636Ted0A-18" value="ACK = 1" style="edgeLabel;html=1;align=center;verticalAlign=middle;resizable=0;points=[];" vertex="1" connectable="0" parent="NIXMcVI8Ff-R636Ted0A-17">
          <mxGeometry x="-0.074" y="-1" relative="1" as="geometry">
            <mxPoint as="offset" />
          </mxGeometry>
        </mxCell>
        <mxCell id="NIXMcVI8Ff-R636Ted0A-19" value="四次挥手" style="text;html=1;align=center;verticalAlign=middle;resizable=0;points=[];autosize=1;strokeColor=none;fillColor=none;" vertex="1" parent="1">
          <mxGeometry x="-465" y="270" width="70" height="30" as="geometry" />
        </mxCell>
        <mxCell id="NIXMcVI8Ff-R636Ted0A-21" value="" style="endArrow=none;html=1;rounded=0;" edge="1" parent="1" source="NIXMcVI8Ff-R636Ted0A-25">
          <mxGeometry width="50" height="50" relative="1" as="geometry">
            <mxPoint x="-720.5" y="610" as="sourcePoint" />
            <mxPoint x="-720.5" y="380" as="targetPoint" />
          </mxGeometry>
        </mxCell>
        <mxCell id="NIXMcVI8Ff-R636Ted0A-22" value="" style="endArrow=none;html=1;rounded=0;" edge="1" parent="1" source="NIXMcVI8Ff-R636Ted0A-28">
          <mxGeometry width="50" height="50" relative="1" as="geometry">
            <mxPoint x="-520.5" y="610" as="sourcePoint" />
            <mxPoint x="-520.5" y="380" as="targetPoint" />
          </mxGeometry>
        </mxCell>
        <mxCell id="NIXMcVI8Ff-R636Ted0A-23" value="客户端" style="text;html=1;align=center;verticalAlign=middle;resizable=0;points=[];autosize=1;strokeColor=none;fillColor=none;" vertex="1" parent="1">
          <mxGeometry x="-750" y="608" width="60" height="30" as="geometry" />
        </mxCell>
        <mxCell id="NIXMcVI8Ff-R636Ted0A-24" value="服务端" style="text;html=1;align=center;verticalAlign=middle;resizable=0;points=[];autosize=1;strokeColor=none;fillColor=none;" vertex="1" parent="1">
          <mxGeometry x="-550" y="610" width="60" height="30" as="geometry" />
        </mxCell>
        <mxCell id="NIXMcVI8Ff-R636Ted0A-26" value="" style="endArrow=none;html=1;rounded=0;" edge="1" parent="1" target="NIXMcVI8Ff-R636Ted0A-25">
          <mxGeometry width="50" height="50" relative="1" as="geometry">
            <mxPoint x="-720.5" y="610" as="sourcePoint" />
            <mxPoint x="-720.5" y="380" as="targetPoint" />
          </mxGeometry>
        </mxCell>
        <mxCell id="NIXMcVI8Ff-R636Ted0A-25" value="" style="rounded=0;whiteSpace=wrap;html=1;" vertex="1" parent="1">
          <mxGeometry x="-725" y="395" width="10" height="205" as="geometry" />
        </mxCell>
        <mxCell id="NIXMcVI8Ff-R636Ted0A-27" value="" style="endArrow=classic;html=1;rounded=0;exitX=0.75;exitY=0;exitDx=0;exitDy=0;" edge="1" parent="1" source="NIXMcVI8Ff-R636Ted0A-25">
          <mxGeometry width="50" height="50" relative="1" as="geometry">
            <mxPoint x="-430" y="470" as="sourcePoint" />
            <mxPoint x="-520" y="395" as="targetPoint" />
          </mxGeometry>
        </mxCell>
        <mxCell id="NIXMcVI8Ff-R636Ted0A-30" value="请求https连接" style="edgeLabel;html=1;align=center;verticalAlign=middle;resizable=0;points=[];" vertex="1" connectable="0" parent="NIXMcVI8Ff-R636Ted0A-27">
          <mxGeometry x="-0.1403" relative="1" as="geometry">
            <mxPoint as="offset" />
          </mxGeometry>
        </mxCell>
        <mxCell id="NIXMcVI8Ff-R636Ted0A-29" value="" style="endArrow=none;html=1;rounded=0;" edge="1" parent="1" source="NIXMcVI8Ff-R636Ted0A-40" target="NIXMcVI8Ff-R636Ted0A-28">
          <mxGeometry width="50" height="50" relative="1" as="geometry">
            <mxPoint x="-520.5" y="610" as="sourcePoint" />
            <mxPoint x="-520.5" y="380" as="targetPoint" />
          </mxGeometry>
        </mxCell>
        <mxCell id="NIXMcVI8Ff-R636Ted0A-28" value="" style="rounded=0;whiteSpace=wrap;html=1;" vertex="1" parent="1">
          <mxGeometry x="-525" y="395" width="10" height="40" as="geometry" />
        </mxCell>
        <mxCell id="NIXMcVI8Ff-R636Ted0A-31" value="" style="endArrow=classic;html=1;rounded=0;exitX=0.5;exitY=1;exitDx=0;exitDy=0;entryX=0.94;entryY=0.196;entryDx=0;entryDy=0;entryPerimeter=0;" edge="1" parent="1" source="NIXMcVI8Ff-R636Ted0A-28" target="NIXMcVI8Ff-R636Ted0A-25">
          <mxGeometry width="50" height="50" relative="1" as="geometry">
            <mxPoint x="-430" y="470" as="sourcePoint" />
            <mxPoint x="-380" y="420" as="targetPoint" />
          </mxGeometry>
        </mxCell>
        <mxCell id="NIXMcVI8Ff-R636Ted0A-32" value="返回证书（公钥）" style="edgeLabel;html=1;align=center;verticalAlign=middle;resizable=0;points=[];" vertex="1" connectable="0" parent="NIXMcVI8Ff-R636Ted0A-31">
          <mxGeometry x="0.1411" y="-1" relative="1" as="geometry">
            <mxPoint x="12" y="1" as="offset" />
          </mxGeometry>
        </mxCell>
        <mxCell id="NIXMcVI8Ff-R636Ted0A-33" value="" style="endArrow=classic;html=1;rounded=0;exitX=1;exitY=0.25;exitDx=0;exitDy=0;entryX=1.14;entryY=0.435;entryDx=0;entryDy=0;entryPerimeter=0;" edge="1" parent="1">
          <mxGeometry width="50" height="50" relative="1" as="geometry">
            <mxPoint x="-715" y="450.25" as="sourcePoint" />
            <mxPoint x="-713.6" y="488.17499999999995" as="targetPoint" />
            <Array as="points">
              <mxPoint x="-700" y="450" />
              <mxPoint x="-700" y="488" />
            </Array>
          </mxGeometry>
        </mxCell>
        <mxCell id="NIXMcVI8Ff-R636Ted0A-34" value="产生随机码（对称）" style="edgeLabel;html=1;align=center;verticalAlign=middle;resizable=0;points=[];" vertex="1" connectable="0" parent="NIXMcVI8Ff-R636Ted0A-33">
          <mxGeometry x="-0.063" relative="1" as="geometry">
            <mxPoint as="offset" />
          </mxGeometry>
        </mxCell>
        <mxCell id="NIXMcVI8Ff-R636Ted0A-35" value="" style="endArrow=classic;html=1;rounded=0;exitX=1;exitY=0.25;exitDx=0;exitDy=0;entryX=1.14;entryY=0.435;entryDx=0;entryDy=0;entryPerimeter=0;" edge="1" parent="1">
          <mxGeometry width="50" height="50" relative="1" as="geometry">
            <mxPoint x="-715" y="506.15999999999997" as="sourcePoint" />
            <mxPoint x="-713.6" y="544.0849999999999" as="targetPoint" />
            <Array as="points">
              <mxPoint x="-700" y="505.90999999999997" />
              <mxPoint x="-700" y="543.91" />
            </Array>
          </mxGeometry>
        </mxCell>
        <mxCell id="NIXMcVI8Ff-R636Ted0A-36" value="利用公钥对对称码进行加密" style="edgeLabel;html=1;align=center;verticalAlign=middle;resizable=0;points=[];" vertex="1" connectable="0" parent="NIXMcVI8Ff-R636Ted0A-35">
          <mxGeometry x="-0.063" relative="1" as="geometry">
            <mxPoint as="offset" />
          </mxGeometry>
        </mxCell>
        <mxCell id="NIXMcVI8Ff-R636Ted0A-38" value="" style="endArrow=classic;html=1;rounded=0;exitX=0.94;exitY=0.806;exitDx=0;exitDy=0;exitPerimeter=0;" edge="1" parent="1" source="NIXMcVI8Ff-R636Ted0A-25">
          <mxGeometry width="50" height="50" relative="1" as="geometry">
            <mxPoint x="-430" y="470" as="sourcePoint" />
            <mxPoint x="-520" y="560" as="targetPoint" />
          </mxGeometry>
        </mxCell>
        <mxCell id="NIXMcVI8Ff-R636Ted0A-39" value="已使用证书加密后的随机码" style="edgeLabel;html=1;align=center;verticalAlign=middle;resizable=0;points=[];" vertex="1" connectable="0" parent="NIXMcVI8Ff-R636Ted0A-38">
          <mxGeometry x="-0.2127" relative="1" as="geometry">
            <mxPoint x="19" as="offset" />
          </mxGeometry>
        </mxCell>
        <mxCell id="NIXMcVI8Ff-R636Ted0A-41" value="" style="endArrow=none;html=1;rounded=0;" edge="1" parent="1" target="NIXMcVI8Ff-R636Ted0A-40">
          <mxGeometry width="50" height="50" relative="1" as="geometry">
            <mxPoint x="-520.5" y="610" as="sourcePoint" />
            <mxPoint x="-520" y="435" as="targetPoint" />
          </mxGeometry>
        </mxCell>
        <mxCell id="NIXMcVI8Ff-R636Ted0A-40" value="" style="rounded=0;whiteSpace=wrap;html=1;" vertex="1" parent="1">
          <mxGeometry x="-525" y="560" width="10" height="30" as="geometry" />
        </mxCell>
        <mxCell id="NIXMcVI8Ff-R636Ted0A-42" value="" style="endArrow=classic;html=1;rounded=0;exitX=0.25;exitY=1;exitDx=0;exitDy=0;entryX=0.94;entryY=0.952;entryDx=0;entryDy=0;entryPerimeter=0;" edge="1" parent="1" source="NIXMcVI8Ff-R636Ted0A-40" target="NIXMcVI8Ff-R636Ted0A-25">
          <mxGeometry width="50" height="50" relative="1" as="geometry">
            <mxPoint x="-430" y="470" as="sourcePoint" />
            <mxPoint x="-380" y="420" as="targetPoint" />
          </mxGeometry>
        </mxCell>
        <mxCell id="NIXMcVI8Ff-R636Ted0A-43" value="ACK" style="edgeLabel;html=1;align=center;verticalAlign=middle;resizable=0;points=[];" vertex="1" connectable="0" parent="NIXMcVI8Ff-R636Ted0A-42">
          <mxGeometry x="0.0575" y="-1" relative="1" as="geometry">
            <mxPoint as="offset" />
          </mxGeometry>
        </mxCell>
        <mxCell id="NIXMcVI8Ff-R636Ted0A-44" value="非对称流程" style="text;html=1;align=center;verticalAlign=middle;resizable=0;points=[];autosize=1;strokeColor=none;fillColor=none;" vertex="1" parent="1">
          <mxGeometry x="-670" y="638" width="80" height="30" as="geometry" />
        </mxCell>
        <mxCell id="NIXMcVI8Ff-R636Ted0A-45" value="" style="rounded=0;whiteSpace=wrap;html=1;" vertex="1" parent="1">
          <mxGeometry x="-490" y="485" width="40" height="15" as="geometry" />
        </mxCell>
        <mxCell id="NIXMcVI8Ff-R636Ted0A-46" value="" style="rounded=0;whiteSpace=wrap;html=1;" vertex="1" parent="1">
          <mxGeometry x="-433" y="385" width="143" height="15" as="geometry" />
        </mxCell>
        <mxCell id="NIXMcVI8Ff-R636Ted0A-47" value="" style="rounded=0;whiteSpace=wrap;html=1;" vertex="1" parent="1">
          <mxGeometry x="-280" y="385" width="40" height="15" as="geometry" />
        </mxCell>
        <mxCell id="NIXMcVI8Ff-R636Ted0A-49" value="" style="rounded=0;whiteSpace=wrap;html=1;" vertex="1" parent="1">
          <mxGeometry x="-433" y="415" width="143" height="15" as="geometry" />
        </mxCell>
        <mxCell id="NIXMcVI8Ff-R636Ted0A-50" value="" style="rounded=0;whiteSpace=wrap;html=1;" vertex="1" parent="1">
          <mxGeometry x="-280" y="415" width="40" height="15" as="geometry" />
        </mxCell>
        <mxCell id="NIXMcVI8Ff-R636Ted0A-56" value="" style="rounded=0;whiteSpace=wrap;html=1;" vertex="1" parent="1">
          <mxGeometry x="-433" y="450" width="143" height="15" as="geometry" />
        </mxCell>
        <mxCell id="NIXMcVI8Ff-R636Ted0A-57" value="" style="rounded=0;whiteSpace=wrap;html=1;" vertex="1" parent="1">
          <mxGeometry x="-280" y="450" width="40" height="15" as="geometry" />
        </mxCell>
        <mxCell id="NIXMcVI8Ff-R636Ted0A-60" value="TCP IP" style="text;html=1;align=center;verticalAlign=middle;resizable=0;points=[];autosize=1;strokeColor=none;fillColor=none;" vertex="1" parent="1">
          <mxGeometry x="-360" y="300" width="60" height="30" as="geometry" />
        </mxCell>
        <mxCell id="NIXMcVI8Ff-R636Ted0A-61" value="" style="rounded=0;whiteSpace=wrap;html=1;" vertex="1" parent="1">
          <mxGeometry x="-725" y="700" width="185" height="10" as="geometry" />
        </mxCell>
        <mxCell id="NIXMcVI8Ff-R636Ted0A-62" value="" style="rounded=0;whiteSpace=wrap;html=1;" vertex="1" parent="1">
          <mxGeometry x="-725" y="720" width="145" height="10" as="geometry" />
        </mxCell>
        <mxCell id="NIXMcVI8Ff-R636Ted0A-63" value="" style="rounded=0;whiteSpace=wrap;html=1;" vertex="1" parent="1">
          <mxGeometry x="-725" y="740" width="175" height="10" as="geometry" />
        </mxCell>
        <mxCell id="NIXMcVI8Ff-R636Ted0A-64" value="" style="rounded=0;whiteSpace=wrap;html=1;" vertex="1" parent="1">
          <mxGeometry x="-725" y="760" width="95" height="10" as="geometry" />
        </mxCell>
        <mxCell id="NIXMcVI8Ff-R636Ted0A-65" value="" style="rounded=0;whiteSpace=wrap;html=1;" vertex="1" parent="1">
          <mxGeometry x="-725" y="800" width="225" height="10" as="geometry" />
        </mxCell>
        <mxCell id="NIXMcVI8Ff-R636Ted0A-66" value="" style="rounded=0;whiteSpace=wrap;html=1;" vertex="1" parent="1">
          <mxGeometry x="-725" y="780" width="155" height="10" as="geometry" />
        </mxCell>
        <mxCell id="NIXMcVI8Ff-R636Ted0A-67" value="" style="rounded=0;whiteSpace=wrap;html=1;" vertex="1" parent="1">
          <mxGeometry x="-630" y="830" width="190" height="10" as="geometry" />
        </mxCell>
        <mxCell id="NIXMcVI8Ff-R636Ted0A-69" value="" style="rounded=0;whiteSpace=wrap;html=1;" vertex="1" parent="1">
          <mxGeometry x="-580" y="850" width="190" height="10" as="geometry" />
        </mxCell>
      </root>
    </mxGraphModel>
  </diagram>
</mxfile>
